<?xml version="1.0" encoding="UTF-8" standalone="no"?>
<svg
   xmlns:dc="http://purl.org/dc/elements/1.1/"
   xmlns:cc="http://creativecommons.org/ns#"
   xmlns:rdf="http://www.w3.org/1999/02/22-rdf-syntax-ns#"
   xmlns:svg="http://www.w3.org/2000/svg"
   xmlns="http://www.w3.org/2000/svg"
   width="170mm"
   height="80mm"
   viewBox="0 0 170 80"
   version="1.1"
   id="svg4625">
  <defs
     id="defs4619" />
  <metadata
     id="metadata4622">
    <rdf:RDF>
      <cc:Work
         rdf:about="">
        <dc:format>image/svg+xml</dc:format>
        <dc:type
           rdf:resource="http://purl.org/dc/dcmitype/StillImage" />
        <dc:title></dc:title>
      </cc:Work>
    </rdf:RDF>
  </metadata>
  <g
     transform="translate(3.2167769e-7,-2.6401e-6)"
     id="layer1">
    <g
       transform="matrix(0.53106854,0,0,-0.53629187,-46.188517,121.61491)"
       id="g10">
      <g
         id="g3217">
        <g
           id="g12">
          <g
             id="text14"
             style="font-variant:normal;font-weight:normal;font-stretch:normal;font-size:20.50040054px;font-family:Webnar;-inkscape-font-specification:Webnar-Regular;writing-mode:lr-tb;fill:#000000;fill-opacity:1;fill-rule:nonzero;stroke:none"
             transform="matrix(1,0,0,-0.99999024,86.3722,106.359)">
            <path
               id="path3230"
               d="m 2.0120022,-14.944872 2.0220122,0 0,6.1260962 7.3473116,0 0,-6.1260962 2.022012,0 0,14.944872 -2.022012,0 0,-7.1170824 -7.3473116,0 0,7.1170824 -2.0220122,0 z" />
            <path
               id="path3232"
               d="m 20.905764,-5.6356082 q -2.232222,0 -3.093078,0.5105081 -0.860857,0.510508 -0.860857,1.7417332 0,0.9809762 0.640637,1.561554 0.650648,0.5705677 1.761754,0.5705677 1.531524,0 2.45244,-1.0810758 0.930926,-1.0910857 0.930926,-2.8928787 l 0,-0.4104085 z m 3.673655,-0.760757 0,6.3963652 -1.841833,0 0,-1.7016934 q -0.630627,1.02101604 -1.571563,1.51150414 -0.940937,0.48047813 -2.302291,0.48047813 -1.721714,0 -2.74273,-0.96095627 -1.011006,-0.9709662 -1.011006,-2.59258 0,-1.8918826 1.261255,-2.8528389 1.271265,-0.9609563 3.783766,-0.9609563 l 2.582569,0 0,-0.1801793 q 0,-1.271265 -0.840836,-1.9619524 -0.830827,-0.7006973 -2.342331,-0.7006973 -0.960956,0 -1.871863,0.2302292 -0.910906,0.2302291 -1.751743,0.6906873 l 0,-1.7016939 q 1.011006,-0.390388 1.961952,-0.580577 0.950947,-0.200199 1.851843,-0.200199 2.432421,0 3.633616,1.261255 1.201195,1.2612547 1.201195,3.8238048 z" />
            <path
               id="path3234"
               d="m 35.465453,0 -9.679633,0 0,-11.211157 1.851843,0 0,9.7396927 5.975947,0 0,-9.7396927 1.851843,0 0,9.7396927 1.471464,0 0,4.3042833 -1.471464,0 z" />
            <path
               id="path3236"
               d="m 47.316603,-11.211157 0,11.211157 -1.831822,0 0,-8.9989551 L 40.079402,0 l -2.362351,0 0,-11.211157 1.831823,0 0,8.9789357 5.395369,-8.9789357 z" />
            <path
               id="path3238"
               d="m 53.201661,-9.9198716 q -1.481475,0 -2.342331,1.1611555 -0.860857,1.1511456 -0.860857,3.1631478 0,2.0120022 0.850847,3.1731577 0.860856,1.1511455 2.352341,1.1511455 1.471464,0 2.332321,-1.1611555 0.860856,-1.1611555 0.860856,-3.1631477 0,-1.9919823 -0.860856,-3.1531378 -0.860857,-1.1711655 -2.332321,-1.1711655 z m 0,-1.5615534 q 2.40239,0 3.773755,1.5615534 1.371365,1.561554 1.371365,4.3243033 0,2.7527393 -1.371365,4.3243032 -1.371365,1.56155397 -3.773755,1.56155397 -2.412401,0 -3.783766,-1.56155397 -1.361354,-1.5715639 -1.361354,-4.3243032 0,-2.7627493 1.361354,-4.3243033 1.371365,-1.5615534 3.783766,-1.5615534 z" />
            <path
               id="path3240"
               d="m 60.164992,-11.211157 1.851842,0 0,4.5745527 5.975947,0 0,-4.5745527 1.851843,0 0,11.211157 -1.851843,0 0,-5.16514 -5.975947,0 0,5.16514 -1.851842,0 z" />
            <path
               id="path3242"
               d="m 76.318344,-5.6356082 q -2.232221,0 -3.093078,0.5105081 -0.860857,0.510508 -0.860857,1.7417332 0,0.9809762 0.640638,1.561554 0.650647,0.5705677 1.761753,0.5705677 1.531524,0 2.452441,-1.0810758 0.930926,-1.0910857 0.930926,-2.8928787 l 0,-0.4104085 z M 79.992,-6.3963652 79.992,0 l -1.841833,0 0,-1.7016934 q -0.630628,1.02101604 -1.571564,1.51150414 -0.940936,0.48047813 -2.302291,0.48047813 -1.721713,0 -2.742729,-0.96095627 -1.011006,-0.9709662 -1.011006,-2.59258 0,-1.8918826 1.261255,-2.8528389 1.271265,-0.9609563 3.783765,-0.9609563 l 2.58257,0 0,-0.1801793 q 0,-1.271265 -0.840837,-1.9619524 -0.830827,-0.7006973 -2.342331,-0.7006973 -0.960956,0 -1.871862,0.2302292 -0.910907,0.2302291 -1.751744,0.6906873 l 0,-1.7016939 q 1.011006,-0.390388 1.961953,-0.580577 0.950946,-0.200199 1.851843,-0.200199 2.43242,0 3.633615,1.261255 1.201196,1.2612547 1.201196,3.8238048 z" />
            <path
               id="path3244"
               d="m 79.830803,0 0,-1.5315241 q 1.821812,-0.2802789 2.38237,-1.541534 0.680678,-1.7717631 0.680678,-6.3062755 l 0,-1.8318234 7.57754,0 0,11.211157 -1.841833,0 0,-9.7396923 -3.893874,0 0,1.1111057 q 0,4.3243033 -0.880877,6.2662358 Q 82.913871,-0.29028887 79.830803,0 Z" />
            <path
               id="path3246"
               d="m 99.438635,-3.3233071 q 0,-0.9008965 -0.660657,-1.3713647 Q 98.12733,-5.16514 96.866075,-5.16514 l -2.622609,0 0,3.6936757 2.622609,0 q 1.261255,0 1.911903,-0.4704682 0.660657,-0.4804781 0.660657,-1.3813746 z m -7.047012,-7.8878499 1.851843,0 0,4.5745527 2.702689,0 q 2.142132,0 3.293275,0.8208168 1.16116,0.8108069 1.16116,2.4924804 0,1.6816735 -1.16116,2.50249028 Q 99.088287,0 96.946155,0 l -4.554532,0 z" />
            <path
               id="path3248"
               d="m 102.31381,-11.211157 1.85184,0 0,4.5745527 5.97595,0 0,-4.5745527 1.85184,0 0,11.211157 -1.85184,0 0,-5.16514 -5.97595,0 0,5.16514 -1.85184,0 z" />
            <path
               id="path3250"
               d="m 123.96264,-11.211157 1.84183,0 0,11.211157 -1.84183,0 z m 0.92092,-0.270268 z m -4.53452,8.1581179 q 0,-0.9008965 -0.66065,-1.3713647 -0.65065,-0.4704682 -1.91191,-0.4704682 l -2.62261,0 0,3.6936757 2.62261,0 q 1.26126,0 1.91191,-0.4704682 0.66065,-0.4804781 0.66065,-1.3813746 z m -7.04701,-7.8878499 1.85184,0 0,4.5745527 2.70269,0 q 2.14213,0 3.29328,0.8208168 1.16116,0.8108069 1.16116,2.4924804 0,1.6816735 -1.16116,2.50249028 Q 119.99869,0 117.85656,0 l -4.55453,0 z" />
            <path
               id="path3252"
               d="m 136.49334,-11.211157 0,11.211157 -1.83182,0 0,-8.9989551 L 129.25614,0 l -2.36235,0 0,-11.211157 1.83182,0 0,8.9789357 5.39537,-8.9789357 z m -7.92789,-4.364343 1.18118,0 q 0.11011,0.750747 0.59059,1.131126 0.49048,0.370369 1.36135,0.370369 0.86086,0 1.34134,-0.370369 0.48047,-0.370369 0.6106,-1.131126 l 1.18118,0 q -0.1001,1.431425 -0.89089,2.152142 -0.79078,0.720717 -2.24223,0.720717 -1.45144,0 -2.24223,-0.720717 -0.79079,-0.720717 -0.89089,-2.152142 z" />
            <path
               id="path3254"
               d="m 151.66365,-11.211157 0,11.211157 -1.83183,0 0,-8.9989551 L 144.42644,0 l -2.36235,0 0,-11.211157 1.83183,0 0,8.9789357 5.39536,-8.9789357 z" />
            <path
               id="path3256"
               d="m 161.2724,-10.780728 0,1.7217131 q -0.78078,-0.4304283 -1.57157,-0.6406375 -0.78077,-0.2202192 -1.58157,-0.2202192 -1.79178,0 -2.78277,1.1411356 -0.99099,1.1311256 -0.99099,3.1831677 0,2.052042 0.99099,3.1931776 0.99099,1.1311256 2.78277,1.1311256 0.8008,0 1.58157,-0.2102092 0.79079,-0.2202191 1.57157,-0.6506474 l 0,1.70169337 q -0.77077,0.3603586 -1.6016,0.5405379 -0.82081,0.1801793 -1.75174,0.1801793 -2.53252,0 -4.024,-1.59158387 -1.49149,-1.5915838 -1.49149,-4.2942733 0,-2.7427294 1.5015,-4.3142933 1.5115,-1.5715634 4.13411,-1.5715634 0.85085,0 1.66165,0.180179 0.81081,0.170169 1.57157,0.520518 z" />
            <path
               id="path3258"
               d="m 171.23559,-10.780728 0,1.7217131 q -0.78077,-0.4304283 -1.57156,-0.6406375 -0.78078,-0.2202192 -1.58158,-0.2202192 -1.79178,0 -2.78276,1.1411356 -0.99099,1.1311256 -0.99099,3.1831677 0,2.052042 0.99099,3.1931776 0.99098,1.1311256 2.78276,1.1311256 0.8008,0 1.58158,-0.2102092 0.79079,-0.2202191 1.57156,-0.6506474 l 0,1.70169337 q -0.77076,0.3603586 -1.60159,0.5405379 -0.82082,0.1801793 -1.75174,0.1801793 -2.53252,0 -4.02401,-1.59158387 -1.49148,-1.5915838 -1.49148,-4.2942733 0,-2.7427294 1.50149,-4.3142933 1.51151,-1.5715634 4.13412,-1.5715634 0.85084,0 1.66165,0.180179 0.81081,0.170169 1.57156,0.520518 z" />
            <path
               id="path3260"
               d="m 172.10104,0 0,-1.5315241 q 1.82182,-0.2802789 2.38237,-1.541534 0.68068,-1.7717631 0.68068,-6.3062755 l 0,-1.8318234 7.57754,0 0,11.211157 -1.84183,0 0,-9.7396923 -3.89388,0 0,1.1111057 q 0,4.3243033 -0.88087,6.2662358 Q 175.18411,-0.29028887 172.10104,0 Z" />
            <path
               id="path3262"
               d="m 194.32148,-6.0660365 0,0.9008965 -8.46842,0 q 0.12012,1.9018926 1.14113,2.9028888 1.03103,0.9909861 2.86285,0.9909861 1.06106,0 2.05204,-0.260259 1.001,-0.260259 1.98198,-0.7807769 l 0,1.74173321 q -0.99099,0.42041837 -2.03203,0.64063752 -1.04103,0.22021914 -2.1121,0.22021914 -2.68267,0 -4.25423,-1.56155397 -1.56156,-1.5615539 -1.56156,-4.2242036 0,-2.7527393 1.48148,-4.3643431 1.49148,-1.6216132 4.01399,-1.6216132 2.26225,0 3.57356,1.461454 1.32131,1.4514442 1.32131,3.9539345 z m -1.84183,-0.5405379 q -0.02,-1.5115041 -0.85085,-2.4124006 -0.82081,-0.9008966 -2.18217,-0.9008966 -1.54153,0 -2.47246,0.8708667 -0.92091,0.8708666 -1.06105,2.4524405 z" />
            <path
               id="path3264"
               d="m 197.81469,-1.4714643 5.34532,0 0,-8.268228 -3.87385,0 0,1.4013946 q 0,4.124104 -1.18118,6.3262955 z m -2.67266,0 q 0.91091,-0.4003984 1.31131,-1.2512451 0.98097,-2.1121019 0.98097,-6.3663354 l 0,-2.1221122 7.57754,0 0,9.7396927 1.47147,0 0,4.3042833 -1.47147,0 0,-2.832819 -9.08904,0 0,2.832819 -1.47146,0 0,-4.3042833 z" />
            <path
               id="path3266"
               d="m 212.01827,-9.9198716 q -1.48148,0 -2.34234,1.1611555 -0.86085,1.1511456 -0.86085,3.1631478 0,2.0120022 0.85084,3.1731577 0.86086,1.1511455 2.35235,1.1511455 1.47146,0 2.33232,-1.1611555 0.86085,-1.1611555 0.86085,-3.1631477 0,-1.9919823 -0.86085,-3.1531378 -0.86086,-1.1711655 -2.33232,-1.1711655 z m 0,-1.5615534 q 2.40239,0 3.77375,1.5615534 1.37137,1.561554 1.37137,4.3243033 0,2.7527393 -1.37137,4.3243032 -1.37136,1.56155397 -3.77375,1.56155397 -2.41241,0 -3.78377,-1.56155397 -1.36135,-1.5715639 -1.36135,-4.3243032 0,-2.7627493 1.36135,-4.3243033 1.37136,-1.5615534 3.78377,-1.5615534 z" />
            <path
               id="path3268"
               d="m 220.82342,-5.16514 0,3.6936757 2.62261,0 q 1.26126,0 1.92191,-0.4704682 0.66066,-0.4804781 0.66066,-1.3813746 0,-0.9008965 -0.66066,-1.3713647 -0.66065,-0.4704682 -1.92191,-0.4704682 z m 0,-4.5745523 0,3.103088 2.42241,0 q 1.04104,0 1.7017,-0.4104084 0.66065,-0.4204184 0.66065,-1.1611555 0,-0.7407371 -0.66065,-1.1311256 -0.66066,-0.4003985 -1.7017,-0.4003985 z m -1.84183,-1.4714647 4.38436,0 q 1.97196,0 3.03302,0.720718 1.06106,0.7207169 1.06106,2.0520417 0,1.031026 -0.54054,1.6416336 -0.54054,0.6005977 -1.6016,0.7507471 1.27127,0.2402391 1.97197,1.0009962 0.70069,0.760757 0.70069,1.9018926 0,1.5014942 -1.16115,2.32231098 Q 225.67825,0 223.53612,0 l -4.55453,0 z" />
            <path
               id="path3270"
               d="m 234.17142,-5.6356082 q -2.23222,0 -3.09308,0.5105081 -0.86086,0.510508 -0.86086,1.7417332 0,0.9809762 0.64064,1.561554 0.65065,0.5705677 1.76175,0.5705677 1.53153,0 2.45244,-1.0810758 0.93093,-1.0910857 0.93093,-2.8928787 l 0,-0.4104085 z m 3.67365,-0.760757 0,6.3963652 -1.84183,0 0,-1.7016934 q -0.63063,1.02101604 -1.57156,1.51150414 -0.94094,0.48047813 -2.30229,0.48047813 -1.72172,0 -2.74273,-0.96095627 -1.01101,-0.9709662 -1.01101,-2.59258 0,-1.8918826 1.26125,-2.8528389 1.27127,-0.9609563 3.78377,-0.9609563 l 2.58257,0 0,-0.1801793 q 0,-1.271265 -0.84084,-1.9619524 -0.83082,-0.7006973 -2.34233,-0.7006973 -0.96095,0 -1.87186,0.2302292 -0.91091,0.2302291 -1.75174,0.6906873 l 0,-1.7016939 q 1.011,-0.390388 1.96195,-0.580577 0.95095,-0.200199 1.85184,-0.200199 2.43242,0 3.63362,1.261255 1.20119,1.2612547 1.20119,3.8238048 z" />
            <path
               id="path3272"
               d="m 237.52372,-11.211157 10.74069,0 0,1.4714647 -4.46444,0 0,9.7396923 -1.8118,0 0,-9.7396923 -4.46445,0 z" />
            <path
               id="path3274"
               d="m 257.71077,-6.0660365 0,0.9008965 -8.46843,0 q 0.12012,1.9018926 1.14113,2.9028888 1.03103,0.9909861 2.86285,0.9909861 1.06106,0 2.05205,-0.260259 1.00099,-0.260259 1.98197,-0.7807769 l 0,1.74173321 q -0.99099,0.42041837 -2.03202,0.64063752 -1.04104,0.22021914 -2.11211,0.22021914 -2.68267,0 -4.25423,-1.56155397 -1.56155,-1.5615539 -1.56155,-4.2242036 0,-2.7527393 1.48147,-4.3643431 1.49148,-1.6216132 4.01399,-1.6216132 2.26226,0 3.57356,1.461454 1.32132,1.4514442 1.32132,3.9539345 z m -1.84184,-0.5405379 q -0.02,-1.5115041 -0.85084,-2.4124006 -0.82082,-0.9008966 -2.18218,-0.9008966 -1.54153,0 -2.47246,0.8708667 -0.92091,0.8708666 -1.06105,2.4524405 z" />
            <path
               id="path3276"
               d="m 257.58977,0 0,-1.5315241 q 1.82181,-0.2802789 2.38237,-1.541534 0.68068,-1.7717631 0.68068,-6.3062755 l 0,-1.8318234 7.57754,0 0,11.211157 -1.84184,0 0,-9.7396923 -3.89387,0 0,1.1111057 q 0,4.3243033 -0.88088,6.2662358 Q 260.67284,-0.29028887 257.58977,0 Z" />
            <path
               id="path3278"
               d="m 277.19759,-3.3233071 q 0,-0.9008965 -0.66066,-1.3713647 -0.65064,-0.4704682 -1.9119,-0.4704682 l -2.62261,0 0,3.6936757 2.62261,0 q 1.26126,0 1.9119,-0.4704682 0.66066,-0.4804781 0.66066,-1.3813746 z m -7.04701,-7.8878499 1.85184,0 0,4.5745527 2.70269,0 q 2.14213,0 3.29328,0.8208168 1.16115,0.8108069 1.16115,2.4924804 0,1.6816735 -1.16115,2.50249028 Q 276.84724,0 274.70511,0 l -4.55453,0 z" />
            <path
               id="path3280"
               d="m 288.21089,-10.780728 0,1.7217131 q -0.78078,-0.4304283 -1.57157,-0.6406375 -0.78077,-0.2202192 -1.58157,-0.2202192 -1.79178,0 -2.78277,1.1411356 -0.99098,1.1311256 -0.99098,3.1831677 0,2.052042 0.99098,3.1931776 0.99099,1.1311256 2.78277,1.1311256 0.8008,0 1.58157,-0.2102092 0.79079,-0.2202191 1.57157,-0.6506474 l 0,1.70169337 q -0.77077,0.3603586 -1.6016,0.5405379 -0.82081,0.1801793 -1.75174,0.1801793 -2.53252,0 -4.024,-1.59158387 -1.49149,-1.5915838 -1.49149,-4.2942733 0,-2.7427294 1.5015,-4.3142933 1.5115,-1.5715634 4.13411,-1.5715634 0.85085,0 1.66165,0.180179 0.81081,0.170169 1.57157,0.520518 z" />
            <path
               id="path3282"
               d="m 290.03599,-11.211157 1.83182,0 0,5.26524 5.19517,-5.26524 2.26225,0 -4.28426,4.3343137 L 299.87578,0 l -2.06205,0 -3.97396,-5.6556281 -1.97196,2.0019923 0,3.6536358 -1.83182,0 z" />
            <path
               id="path3284"
               d="m 309.63972,-11.211157 0,11.211157 -1.83182,0 0,-8.9989551 L 302.40252,0 l -2.36235,0 0,-11.211157 1.83182,0 0,8.9789357 5.39537,-8.9789357 z" />
            <path
               id="path3286"
               d="m 320.70994,-11.211157 0,11.211157 -1.83182,0 0,-8.9989551 L 313.47274,0 l -2.36235,0 0,-11.211157 1.83182,0 0,8.9789357 5.39537,-8.9789357 z m -7.92789,-4.364343 1.18118,0 q 0.11011,0.750747 0.59058,1.131126 0.49049,0.370369 1.36136,0.370369 0.86086,0 1.34133,-0.370369 0.48048,-0.370369 0.61061,-1.131126 l 1.18118,0 q -0.1001,1.431425 -0.89089,2.152142 -0.79079,0.720717 -2.24223,0.720717 -1.45145,0 -2.24223,-0.720717 -0.79079,-0.720717 -0.89089,-2.152142 z" />
          </g>
        </g>
        <g
           id="g18">
          <g
             id="text20"
             style="font-variant:normal;font-weight:normal;font-stretch:normal;font-size:20.50040054px;font-family:Webnar;-inkscape-font-specification:Webnar-Regular;writing-mode:lr-tb;fill:#000000;fill-opacity:1;fill-rule:nonzero;stroke:none"
             transform="matrix(1,0,0,-0.99999024,86.3722,81.8617)">
            <path
               id="path3289"
               d="m 0.60059767,-11.211157 10.74068833,0 0,1.4714647 -4.4644427,0 0,9.7396923 -1.8118029,0 0,-9.7396923 -4.46444273,0 z" />
            <path
               id="path3291"
               d="m 20.787646,-6.0660365 0,0.9008965 -8.468427,0 q 0.12012,1.9018926 1.141136,2.9028888 1.031026,0.9909861 2.862849,0.9909861 1.061056,0 2.052042,-0.260259 1.000996,-0.260259 1.981972,-0.7807769 l 0,1.74173321 q -0.990986,0.42041837 -2.032022,0.64063752 -1.041036,0.22021914 -2.112102,0.22021914 -2.68267,0 -4.254233,-1.56155397 -1.561554,-1.5615539 -1.561554,-4.2242036 0,-2.7527393 1.481474,-4.3643431 1.491484,-1.6216132 4.013994,-1.6216132 2.262252,0 3.573556,1.461454 1.321315,1.4514442 1.321315,3.9539345 z m -1.841833,-0.5405379 q -0.02002,-1.5115041 -0.850846,-2.4124006 -0.820817,-0.9008966 -2.182172,-0.9008966 -1.541534,0 -2.47246,0.8708667 -0.920917,0.8708666 -1.061056,2.4524405 z" />
            <path
               id="path3293"
               d="M 31.157084,-11.211157 27.10305,-5.7557277 31.367293,0 29.195132,0 25.931884,-4.4043829 22.668637,0 l -2.172162,0 4.354333,-5.8658373 -3.983964,-5.3453197 2.172161,0 2.972959,3.993975 2.972958,-3.993975 z" />
            <path
               id="path3295"
               d="m 31.361929,-11.211157 1.851843,0 0,4.5745527 5.975947,0 0,-4.5745527 1.851843,0 0,11.211157 -1.851843,0 0,-5.16514 -5.975947,0 0,5.16514 -1.851843,0 z" />
            <path
               id="path3297"
               d="m 46.764535,-9.9198716 q -1.481475,0 -2.342331,1.1611555 -0.860857,1.1511456 -0.860857,3.1631478 0,2.0120022 0.850847,3.1731577 0.860856,1.1511455 2.352341,1.1511455 1.471464,0 2.332321,-1.1611555 0.860856,-1.1611555 0.860856,-3.1631477 0,-1.9919823 -0.860856,-3.1531378 -0.860857,-1.1711655 -2.332321,-1.1711655 z m 0,-1.5615534 q 2.40239,0 3.773755,1.5615534 1.371365,1.561554 1.371365,4.3243033 0,2.7527393 -1.371365,4.3243032 -1.371365,1.56155397 -3.773755,1.56155397 -2.412401,0 -3.783766,-1.56155397 -1.361355,-1.5715639 -1.361355,-4.3243032 0,-2.7627493 1.361355,-4.3243033 1.371365,-1.5615534 3.783766,-1.5615534 z" />
            <path
               id="path3299"
               d="m 52.216762,0 0,-1.5315241 q 1.821813,-0.2802789 2.382371,-1.541534 0.680677,-1.7717631 0.680677,-6.3062755 l 0,-1.8318234 7.577541,0 0,11.211157 -1.841833,0 0,-9.7396923 -3.893875,0 0,1.1111057 q 0,4.3243033 -0.880876,6.2662358 Q 55.29983,-0.29028887 52.216762,0 Z" />
            <path
               id="path3301"
               d="m 69.191971,-9.9198716 q -1.481474,0 -2.342331,1.1611555 -0.860856,1.1511456 -0.860856,3.1631478 0,2.0120022 0.850846,3.1731577 0.860857,1.1511455 2.352341,1.1511455 1.471465,0 2.332321,-1.1611555 0.860857,-1.1611555 0.860857,-3.1631477 0,-1.9919823 -0.860857,-3.1531378 -0.860856,-1.1711655 -2.332321,-1.1711655 z m 0,-1.5615534 q 2.402391,0 3.773756,1.5615534 1.371364,1.561554 1.371364,4.3243033 0,2.7527393 -1.371364,4.3243032 -1.371365,1.56155397 -3.773756,1.56155397 -2.4124,0 -3.783765,-1.56155397 -1.361355,-1.5715639 -1.361355,-4.3243032 0,-2.7627493 1.361355,-4.3243033 1.371365,-1.5615534 3.783765,-1.5615534 z" />
            <path
               id="path3303"
               d="m 76.155302,0 0,-11.211157 7.90787,0 0,1.4714647 -6.056027,0 0,9.7396923 z" />
            <path
               id="path3305"
               d="m 94.078021,-11.211157 0,11.211157 -1.831823,0 0,-8.9989551 L 86.840819,0 l -2.362351,0 0,-11.211157 1.831823,0 0,8.9789357 5.395369,-8.9789357 z" />
            <path
               id="path3307"
               d="m 102.07675,0 0,-4.7146917 -3.433419,0 q -1.531524,0 -2.55254,-0.9509463 -0.920916,-0.8608567 -0.920916,-2.7026896 l 0,-2.8428294 1.841833,0 0,2.6726601 q 0,1.1711655 0.520518,1.7617532 0.530528,0.5905877 1.571564,0.5905877 l 2.97296,0 0,-5.025001 1.84183,0 0,11.211157 z" />
            <path
               id="path3309"
               d="m 115.87055,-6.0660365 0,0.9008965 -8.46843,0 q 0.12012,1.9018926 1.14114,2.9028888 1.03102,0.9909861 2.86285,0.9909861 1.06105,0 2.05204,-0.260259 1.00099,-0.260259 1.98197,-0.7807769 l 0,1.74173321 q -0.99099,0.42041837 -2.03202,0.64063752 -1.04104,0.22021914 -2.1121,0.22021914 -2.68267,0 -4.25424,-1.56155397 -1.56155,-1.5615539 -1.56155,-4.2242036 0,-2.7527393 1.48147,-4.3643431 1.49149,-1.6216132 4.014,-1.6216132 2.26225,0 3.57355,1.461454 1.32132,1.4514442 1.32132,3.9539345 z m -1.84183,-0.5405379 q -0.02,-1.5115041 -0.85085,-2.4124006 -0.82082,-0.9008966 -2.18217,-0.9008966 -1.54154,0 -2.47246,0.8708667 -0.92092,0.8708666 -1.06106,2.4524405 z" />
            <path
               id="path3311"
               d="m 124.98669,-10.780728 0,1.7217131 q -0.78078,-0.4304283 -1.57156,-0.6406375 -0.78078,-0.2202192 -1.58158,-0.2202192 -1.79178,0 -2.78277,1.1411356 -0.99098,1.1311256 -0.99098,3.1831677 0,2.052042 0.99098,3.1931776 0.99099,1.1311256 2.78277,1.1311256 0.8008,0 1.58158,-0.2102092 0.79078,-0.2202191 1.57156,-0.6506474 l 0,1.70169337 q -0.77077,0.3603586 -1.60159,0.5405379 -0.82082,0.1801793 -1.75175,0.1801793 -2.53252,0 -4.024,-1.59158387 -1.49148,-1.5915838 -1.49148,-4.2942733 0,-2.7427294 1.50149,-4.3142933 1.5115,-1.5715634 4.13411,-1.5715634 0.85085,0 1.66166,0.180179 0.8108,0.170169 1.57156,0.520518 z" />
            <path
               id="path3313"
               d="m 126.8118,-11.211157 1.83182,0 0,5.26524 5.19517,-5.26524 2.26225,0 -4.28426,4.3343137 L 136.65159,0 l -2.06205,0 -3.97396,-5.6556281 -1.97196,2.0019923 0,3.6536358 -1.83182,0 z" />
            <path
               id="path3315"
               d="m 146.41554,-11.211157 0,11.211157 -1.83183,0 0,-8.9989551 L 139.17834,0 l -2.36236,0 0,-11.211157 1.83183,0 0,8.9789357 5.39537,-8.9789357 z" />
            <path
               id="path3317"
               d="m 157.48576,-11.211157 0,11.211157 -1.83182,0 0,-8.9989551 L 150.24856,0 l -2.36235,0 0,-11.211157 1.83182,0 0,8.9789357 5.39537,-8.9789357 z m -7.92789,-4.364343 1.18117,0 q 0.11011,0.750747 0.59059,1.131126 0.49049,0.370369 1.36136,0.370369 0.86085,0 1.34133,-0.370369 0.48048,-0.370369 0.61061,-1.131126 l 1.18118,0 q -0.1001,1.431425 -0.89089,2.152142 -0.79079,0.720717 -2.24223,0.720717 -1.45145,0 -2.24223,-0.720717 -0.79079,-0.720717 -0.89089,-2.152142 z" />
            <path
               id="path3319"
               d="m 167.79121,1.041036 q -0.78078,2.0019922 -1.52152,2.6125998 -0.74074,0.6106077 -1.98197,0.6106077 l -1.47147,0 0,-1.5415341 1.08108,0 q 0.76076,0 1.18118,-0.3603586 0.42041,-0.3603586 0.93092,-1.70169336 l 0.33033,-0.84083674 -4.53451,-11.0309777 1.95194,0 3.50349,8.7687265 3.50348,-8.7687265 1.95195,0 z" />
            <path
               id="path3321"
               d="m 173.34769,-11.211157 1.85185,0 0,4.5745527 5.97594,0 0,-4.5745527 1.85185,0 0,11.211157 -1.85185,0 0,-5.16514 -5.97594,0 0,5.16514 -1.85185,0 z" />
            <path
               id="path3323"
               d="m 193.93547,-11.211157 0,11.211157 -1.83183,0 0,-8.9989551 L 186.69826,0 l -2.36235,0 0,-11.211157 1.83183,0 0,8.9789357 5.39536,-8.9789357 z" />
            <path
               id="path3325"
               d="m 197.24797,-5.16514 0,3.6936757 2.62261,0 q 1.26125,0 1.92191,-0.4704682 0.66066,-0.4804781 0.66066,-1.3813746 0,-0.9008965 -0.66066,-1.3713647 -0.66066,-0.4704682 -1.92191,-0.4704682 z m 0,-4.5745523 0,3.103088 2.42241,0 q 1.04103,0 1.70169,-0.4104084 0.66066,-0.4204184 0.66066,-1.1611555 0,-0.7407371 -0.66066,-1.1311256 -0.66066,-0.4003985 -1.70169,-0.4003985 z m -1.84184,-1.4714647 4.38437,0 q 1.97196,0 3.03302,0.720718 1.06105,0.7207169 1.06105,2.0520417 0,1.031026 -0.54054,1.6416336 -0.54053,0.6005977 -1.60159,0.7507471 1.27126,0.2402391 1.97196,1.0009962 0.7007,0.760757 0.7007,1.9018926 0,1.5014942 -1.16116,2.32231098 Q 202.1028,0 199.96067,0 l -4.55454,0 z" />
            <path
               id="path3327"
               d="m 215.09044,-6.0660365 0,0.9008965 -8.46843,0 q 0.12012,1.9018926 1.14113,2.9028888 1.03103,0.9909861 2.86285,0.9909861 1.06106,0 2.05204,-0.260259 1.001,-0.260259 1.98198,-0.7807769 l 0,1.74173321 q -0.99099,0.42041837 -2.03203,0.64063752 -1.04103,0.22021914 -2.1121,0.22021914 -2.68267,0 -4.25423,-1.56155397 -1.56155,-1.5615539 -1.56155,-4.2242036 0,-2.7527393 1.48147,-4.3643431 1.49148,-1.6216132 4.01399,-1.6216132 2.26226,0 3.57356,1.461454 1.32132,1.4514442 1.32132,3.9539345 z m -1.84184,-0.5405379 q -0.02,-1.5115041 -0.85084,-2.4124006 -0.82082,-0.9008966 -2.18218,-0.9008966 -1.54153,0 -2.47246,0.8708667 -0.92091,0.8708666 -1.06105,2.4524405 z" />
            <path
               id="path3329"
               d="m 218.06588,-1.6816735 0,5.945917 -1.85184,0 0,-15.4754005 1.85184,0 0,1.7016939 q 0.58058,-1.0009959 1.46146,-1.4814739 0.89088,-0.490488 2.12211,-0.490488 2.04203,0 3.3133,1.6216132 1.28127,1.6216137 1.28127,4.2642435 0,2.6426297 -1.28127,4.2642435 -1.27127,1.62161367 -3.3133,1.62161367 -1.23123,0 -2.12211,-0.48047813 -0.88088,-0.4904881 -1.46146,-1.49148424 z m 6.26624,-3.9138948 q 0,-2.0320221 -0.84084,-3.1831677 -0.83082,-1.1611555 -2.29228,-1.1611555 -1.46145,0 -2.30229,1.1611555 -0.83083,1.1511456 -0.83083,3.1831677 0,2.0320221 0.83083,3.1931776 0.84084,1.1511455 2.30229,1.1511455 1.46146,0 2.29228,-1.1511455 0.84084,-1.1611555 0.84084,-3.1931776 z" />
            <path
               id="path3331"
               d="m 235.52485,-10.780728 0,1.7217131 q -0.78077,-0.4304283 -1.57156,-0.6406375 -0.78078,-0.2202192 -1.58157,-0.2202192 -1.79179,0 -2.78277,1.1411356 -0.99099,1.1311256 -0.99099,3.1831677 0,2.052042 0.99099,3.1931776 0.99098,1.1311256 2.78277,1.1311256 0.80079,0 1.58157,-0.2102092 0.79079,-0.2202191 1.57156,-0.6506474 l 0,1.70169337 q -0.77076,0.3603586 -1.60159,0.5405379 -0.82082,0.1801793 -1.75174,0.1801793 -2.53252,0 -4.02401,-1.59158387 -1.49148,-1.5915838 -1.49148,-4.2942733 0,-2.7427294 1.50149,-4.3142933 1.51151,-1.5715634 4.13412,-1.5715634 0.85084,0 1.66165,0.180179 0.81081,0.170169 1.57156,0.520518 z" />
            <path
               id="path3333"
               d="m 246.9495,-11.211157 0,11.211157 -1.83182,0 0,-8.9989551 L 239.7123,0 l -2.36235,0 0,-11.211157 1.83182,0 0,8.9789357 5.39537,-8.9789357 z" />
            <path
               id="path3335"
               d="m 247.1589,-11.211157 10.74069,0 0,1.4714647 -4.46444,0 0,9.7396923 -1.81181,0 0,-9.7396923 -4.46444,0 z" />
            <path
               id="path3337"
               d="m 267.34596,-6.0660365 0,0.9008965 -8.46843,0 q 0.12012,1.9018926 1.14114,2.9028888 1.03102,0.9909861 2.86285,0.9909861 1.06105,0 2.05204,-0.260259 1.00099,-0.260259 1.98197,-0.7807769 l 0,1.74173321 q -0.99099,0.42041837 -2.03202,0.64063752 -1.04104,0.22021914 -2.1121,0.22021914 -2.68267,0 -4.25424,-1.56155397 -1.56155,-1.5615539 -1.56155,-4.2242036 0,-2.7527393 1.48147,-4.3643431 1.49149,-1.6216132 4.014,-1.6216132 2.26225,0 3.57355,1.461454 1.32132,1.4514442 1.32132,3.9539345 z m -1.84183,-0.5405379 q -0.02,-1.5115041 -0.85085,-2.4124006 -0.82082,-0.9008966 -2.18217,-0.9008966 -1.54154,0 -2.47246,0.8708667 -0.92092,0.8708666 -1.06106,2.4524405 z" />
            <path
               id="path3339"
               d="m 266.79829,-11.211157 10.74069,0 0,1.4714647 -4.46444,0 0,9.7396923 -1.81181,0 0,-9.7396923 -4.46444,0 z" />
          </g>
        </g>
        <g
           id="g24"
           transform="translate(262.894,141.321)">
          <path
             d="M 0,0 -2.481,4.964 C -2.591,5.152 -2.87,5.277 -3.114,5.12 -5.133,3.719 -7.836,2.892 -10.836,2.892 c -6.458,0 -10.985,5.234 -10.985,11.692 0,6.458 4.527,11.693 10.985,11.693 3.002,0 5.707,-0.829 7.727,-2.232 0.22,-0.128 0.501,-0.067 0.624,0.155 l 2.487,4.973 c 0.132,0.25 0.072,0.5 -0.147,0.635 -3.025,2.129 -6.711,3.379 -10.691,3.379 -10.274,0 -18.602,-8.329 -18.602,-18.603 0,-10.273 8.328,-18.603 18.602,-18.603 3.978,0 7.664,1.25 10.687,3.377 C 0.074,-0.495 0.134,-0.255 0,0 m -65.55,0 -2.482,4.964 c -0.108,0.188 -0.389,0.313 -0.633,0.156 -2.02,-1.401 -4.721,-2.228 -7.721,-2.228 -6.459,0 -10.984,5.234 -10.984,11.692 0,6.458 4.525,11.693 10.984,11.693 3.002,0 5.707,-0.829 7.727,-2.232 0.221,-0.128 0.502,-0.067 0.625,0.155 l 2.486,4.973 c 0.133,0.25 0.07,0.5 -0.148,0.635 -3.024,2.129 -6.711,3.379 -10.69,3.379 -10.274,0 -18.602,-8.329 -18.602,-18.603 0,-10.273 8.328,-18.603 18.602,-18.603 3.979,0 7.662,1.25 10.688,3.377 0.22,0.147 0.283,0.387 0.148,0.642 m 30.053,24.328 -5.457,0.001 c -0.301,-0.001 -0.568,-0.154 -0.727,-0.385 l -11.976,-17.332 -0.531,0 0.531,10.63 0,6.642 0,0.002 c 0,0.244 -0.199,0.443 -0.444,0.443 l -5.316,0 c -0.24,0 -0.437,-0.194 -0.441,-0.435 l 0,-26.583 c 0,-0.245 0.197,-0.442 0.439,-0.443 l 5.457,0 c 0.303,0.001 0.568,0.153 0.727,0.384 l 11.976,17.332 0.533,0 -0.533,-10.629 0,-6.643 0.002,-10e-4 c 0,-0.245 0.197,-0.443 0.442,-0.443 l 5.316,0 c 0.242,0 0.437,0.194 0.441,0.434 l 0.002,26.584 c 0,0.243 -0.197,0.441 -0.441,0.442 m -65.551,7.973 -6.342,0 c -0.301,-0.001 -0.568,-0.153 -0.727,-0.384 l -15.521,-22.389 -0.534,0 0.534,12.143 0,10.187 c 0,0.245 -0.2,0.443 -0.444,0.443 l -6.201,0 c -0.244,0 -0.442,-0.198 -0.442,-0.443 l -0.002,-34.547 c 0,-0.245 0.2,-0.443 0.444,-0.443 l 5.109,0 c 0.301,0 0.569,0.151 0.729,0.382 0,10e-4 16.75,24.162 16.75,24.162 l 0.531,0 -0.531,-12.143 0,-11.957 0,-10e-4 c 0,-0.245 0.199,-0.443 0.443,-0.443 l 6.202,0 c 0.242,0 0.437,0.194 0.441,0.434 l 0.002,34.556 c 0,0.244 -0.197,0.441 -0.441,0.443 m -38.538,-0.443 0,-34.554 c -0.004,-0.242 -0.201,-0.436 -0.443,-0.436 l -6.201,0 c -0.245,0 -0.442,0.198 -0.442,0.443 l 0,11.959 0.531,11.885 -0.531,0 -10.06,-14.365 -1.141,0 -10.059,14.365 -0.531,0 0.531,-11.885 0,-11.959 c 0,-0.245 -0.197,-0.443 -0.443,-0.443 l -6.201,0 c -0.243,0 -0.438,0.194 -0.442,0.436 l 0,34.554 c 0,0.245 0.197,0.443 0.444,0.443 l 6.181,0 c 0.299,0 0.562,-0.149 0.723,-0.376 l 10.367,-14.83 10.367,14.83 c 0.161,0.227 0.426,0.376 0.725,0.376 l 6.182,0 c 0.246,0 0.443,-0.198 0.443,-0.443"
             style="fill:#000000;fill-opacity:1;fill-rule:nonzero;stroke:none"
             id="path26" />
        </g>
        <g
           id="g28"
           transform="translate(288.071,205.513)">
          <path
             d="m 0,0 c -6.199,0 -11.826,-2.45 -15.967,-6.434 -0.172,-0.159 -0.178,-0.449 -0.008,-0.624 l 4.385,-4.385 c 0.176,-0.178 0.455,-0.179 0.629,-0.009 2.856,2.706 6.715,4.366 10.961,4.366 8.805,0 15.943,-7.14 15.943,-15.946 0,-8.806 -7.138,-15.945 -15.943,-15.945 -4.242,0 -8.098,1.657 -10.953,4.358 -0.192,0.18 -0.463,0.175 -0.633,0.002 l -4.387,-4.386 c -0.172,-0.174 -0.168,-0.453 0.004,-0.625 4.141,-3.984 9.768,-6.435 15.969,-6.435 12.719,0 23.031,10.312 23.031,23.031 C 23.031,-10.312 12.719,0 0,0 m 0,14.173 -0.002,0 0,-6.645 c 0,-0.245 0.189,-0.447 0.465,-0.447 16.42,-0.248 29.654,-13.634 29.654,-30.113 0,-16.48 -13.236,-29.866 -29.66,-30.112 -0.264,0 -0.459,-0.201 -0.459,-0.445 l 0,-6.202 c 0,-0.237 0.189,-0.43 0.426,-0.44 20.351,0.227 36.779,16.793 36.779,37.199 0,20.548 -16.656,37.205 -37.203,37.205 m -0.002,6.642 c 0,0.242 -0.193,0.438 -0.434,0.442 -24.117,-0.232 -43.623,-19.738 -43.854,-43.856 0.004,-0.237 0.197,-0.429 0.436,-0.433 l 6.215,0 c 0.24,0.004 0.439,0.199 0.439,0.456 0.244,20.338 16.804,36.749 37.2,36.749 z m 8.859,-43.847 c 0,-4.892 -3.966,-8.858 -8.857,-8.858 -4.893,0 -8.859,3.966 -8.859,8.858 0,4.892 3.966,8.859 8.859,8.859 4.891,0 8.857,-3.967 8.857,-8.859"
             style="fill:#000000;fill-opacity:1;fill-rule:nonzero;stroke:none"
             id="path30" />
        </g>
      </g>
    </g>
  </g>
</svg>
